<svg id="ef3cce34-344e-4f72-a88a-dc8bfdf69984" data-name="Calque 2" xmlns="http://www.w3.org/2000/svg" viewBox="0 0 500 500"><defs><style>.fab7e252-95bb-4daa-9f7d-d900678b61fe{fill:#efd857;}.bcadce61-aa3e-438c-9a3c-76d2f4f3d3c6,.f9e14fa5-8888-4625-a092-420f9a705567,.fab7e252-95bb-4daa-9f7d-d900678b61fe{fill-rule:evenodd;}.bcadce61-aa3e-438c-9a3c-76d2f4f3d3c6,.e612d47d-04c3-4a07-99e3-4c9beb5d1c7e,.f9e14fa5-8888-4625-a092-420f9a705567{fill:none;stroke:#000;stroke-linejoin:round;stroke-width:4px;}.bcadce61-aa3e-438c-9a3c-76d2f4f3d3c6{stroke-linecap:round;}</style></defs><polygon class="fab7e252-95bb-4daa-9f7d-d900678b61fe" points="407.87 70.88 425.34 81.35 464.84 15.82 447.37 5.36 407.87 70.88"/><polygon class="fab7e252-95bb-4daa-9f7d-d900678b61fe" points="423.5 98.31 436.09 114.29 491 71.27 478.4 55.3 423.5 98.31"/><polygon class="fab7e252-95bb-4daa-9f7d-d900678b61fe" points="398.13 75.42 377.75 75.12 378.58 19.76 398.96 20.07 398.13 75.42"/><path class="bcadce61-aa3e-438c-9a3c-76d2f4f3d3c6" d="M408.39,118.23V96.13a6.52,6.52,0,0,0-6.52-6.53H370.44a6.53,6.53,0,0,0-6.53,6.53v56.48a6.53,6.53,0,0,0,6.53,6.53h31.43a6.52,6.52,0,0,0,6.52-6.53V129.92"/><path class="f9e14fa5-8888-4625-a092-420f9a705567" d="M364.56,99.24H240.19a11.73,11.73,0,0,0-6.1,1.71l-30.84,18.86a7,7,0,0,0,3.67,13h71.57l-33.16,35.7a20.45,20.45,0,0,0-5.15,10.09c-1.69,8.81-2,23.6,15.3,22.74a24.27,24.27,0,0,0,12.7-4.44l35-24.64s36.53,5.84,40.91-27.76h20.45"/><path class="f9e14fa5-8888-4625-a092-420f9a705567" d="M204.71,132.84H115.85s-31,14.61,0,32.14L91.61,252.64V410.4H335.34l-1-154.24a16.76,16.76,0,0,0-.87-5.26l-26.3-78.27-25,77.78a18.07,18.07,0,0,0-.89,5.4L278.9,410.4l27.47-27.48v-.25l29,27.73"/><polyline class="f9e14fa5-8888-4625-a092-420f9a705567" points="133.76 252.64 133.76 278.94 177.56 278.94 177.56 252.64"/><line class="e612d47d-04c3-4a07-99e3-4c9beb5d1c7e" x1="155.66" y1="252.64" x2="155.66" y2="278.94"/><polyline class="f9e14fa5-8888-4625-a092-420f9a705567" points="133.76 278.94 143.95 299.39 166.96 299.39 177.56 278.94"/><path class="f9e14fa5-8888-4625-a092-420f9a705567" d="M144,299.39l-2.76,67.66a6.56,6.56,0,0,0,3.66,6.15c4.74,2.33,13.1,5.07,20.56.5a7,7,0,0,0,3.32-6.1L167,299.39"/><line class="e612d47d-04c3-4a07-99e3-4c9beb5d1c7e" x1="115.85" y1="164.98" x2="249.15" y2="164.98"/><path class="f9e14fa5-8888-4625-a092-420f9a705567" d="M227.23,255.56v68.67H205l-12-12.3a7,7,0,0,1-2-5.68C192.27,294.23,198.67,254.32,227.23,255.56Z"/><path class="f9e14fa5-8888-4625-a092-420f9a705567" d="M227.23,324.23l4.1,41a7.12,7.12,0,0,1-1.84,5.53c-4.13,4.49-14,12.11-27,1.54a6.84,6.84,0,0,1-2.41-6.41l6.7-40.16"/></svg>