<svg xmlns="http://www.w3.org/2000/svg" viewBox="0 0 500 500"><defs><style>.a11ab439-2dee-4178-a646-9bcd38662f19,.fca23f59-a7d0-4d8d-b5ce-41fcc6c21c5d{fill:none;stroke:#000;stroke-linecap:round;stroke-linejoin:round;stroke-width:4px;}.aaf2390b-4695-4b24-a6d7-58eefef9f54d,.fca23f59-a7d0-4d8d-b5ce-41fcc6c21c5d{fill-rule:evenodd;}.aaf2390b-4695-4b24-a6d7-58eefef9f54d{fill:#efd857;}</style></defs><g id="ae5c9bfa-38cf-465d-8076-6f07cbde687b" data-name="Calque 3"><path class="fca23f59-a7d0-4d8d-b5ce-41fcc6c21c5d" d="M208.19,116.19H153a11.7,11.7,0,0,0-11.7,11.7V398.3A11.7,11.7,0,0,0,153,410H347a11.7,11.7,0,0,0,11.7-11.7V127.89a11.7,11.7,0,0,0-11.7-11.7H295.88"/><path class="fca23f59-a7d0-4d8d-b5ce-41fcc6c21c5d" d="M209.7,145.66H172a9.36,9.36,0,0,0-9.35,9.36V371.29a9.35,9.35,0,0,0,9.35,9.35H327.19a9.35,9.35,0,0,0,9.35-9.35V155a9.36,9.36,0,0,0-9.35-9.36H296.86"/><line class="a11ab439-2dee-4178-a646-9bcd38662f19" x1="219.07" y1="238.22" x2="285.35" y2="238.22"/><line class="a11ab439-2dee-4178-a646-9bcd38662f19" x1="207.57" y1="263.52" x2="296.86" y2="263.52"/><line class="a11ab439-2dee-4178-a646-9bcd38662f19" x1="232.87" y1="288.83" x2="271.55" y2="288.83"/><line class="a11ab439-2dee-4178-a646-9bcd38662f19" x1="219.07" y1="314.13" x2="285.35" y2="314.13"/><line class="a11ab439-2dee-4178-a646-9bcd38662f19" x1="237.56" y1="335.68" x2="266.87" y2="335.68"/><path class="fca23f59-a7d0-4d8d-b5ce-41fcc6c21c5d" d="M273.73,175.43H229.46a15.08,15.08,0,0,0-15.07,15.08h0a15.07,15.07,0,0,0,15.07,15.07h44.27a14.69,14.69,0,0,0,14.69-14.69v-.76A14.7,14.7,0,0,0,273.73,175.43Z"/><path class="fca23f59-a7d0-4d8d-b5ce-41fcc6c21c5d" d="M209.7,110.77v39.78h85.78V110.77H278.54a9.23,9.23,0,0,1-7.59-4l-7.27-10.47a14.73,14.73,0,0,0-24.2,0l-7.3,10.5a9.25,9.25,0,0,1-7.6,4Z"/><polygon class="aaf2390b-4695-4b24-a6d7-58eefef9f54d" points="356.89 85.92 373.86 96.08 412.23 32.43 395.26 22.27 356.89 85.92"/><polygon class="aaf2390b-4695-4b24-a6d7-58eefef9f54d" points="372.07 112.56 384.3 128.08 437.64 86.29 425.41 70.78 372.07 112.56"/><polygon class="aaf2390b-4695-4b24-a6d7-58eefef9f54d" points="347.43 90.33 327.63 90.04 328.44 36.26 348.23 36.55 347.43 90.33"/></g></svg>