<svg xmlns="http://www.w3.org/2000/svg" viewBox="0 0 500 500"><defs><style>.a3ba9097-448e-4868-ac80-57650cfb1320,.b99350b9-858d-4ec4-9473-0c69e9f4e7e0,.eb9c238f-6531-4305-85f4-1010ae787711{fill:none;}.b99350b9-858d-4ec4-9473-0c69e9f4e7e0,.eb9c238f-6531-4305-85f4-1010ae787711{stroke:#000;stroke-linecap:round;stroke-linejoin:round;stroke-width:4px;}.b99350b9-858d-4ec4-9473-0c69e9f4e7e0,.f6d6b8c3-8984-4bf1-b27b-2e506abb2f6d{fill-rule:evenodd;}.f6d6b8c3-8984-4bf1-b27b-2e506abb2f6d{fill:#efd857;}</style></defs><g id="ae9acc16-056b-46ff-91c6-d18c84af11ae" data-name="Calque 4"><path class="b99350b9-858d-4ec4-9473-0c69e9f4e7e0" d="M266.81,290.07v6.07a6.11,6.11,0,0,1-.28-5.44Z"/><path class="b99350b9-858d-4ec4-9473-0c69e9f4e7e0" d="M214.33,236.2a5.1,5.1,0,0,0,1.19-2.92Z"/><path class="b99350b9-858d-4ec4-9473-0c69e9f4e7e0" d="M381.34,168.51l-55.93-22.72v.1l35.23,14.44-11,6.62a12.74,12.74,0,0,1-11.16.79l-13.17-5.36-9.47-3.84-.43-.18A12.63,12.63,0,0,1,308,150l-2.75-12.39L315.86,142v-.07l-16.35-6.64-14.4-5.85a20.58,20.58,0,0,0-1.95-.69,25.18,25.18,0,0,0-15.6.12c-1.68.64-3.16,1.34-4.4,1.93a25.29,25.29,0,0,0-11.11,12.6l-1.6,3.93-14,34.49-14.82,36.48-1.56,3.85-2.31,5.67,0,.06-2.21,5.42a5.1,5.1,0,0,1-1.19,2.92l-2.59,6.38-2.66,6.55-2.57,6.33-5.11,12.59-2.65,6.51L185,308.28l-9.68,23.84,9.68,3.94,6,2.45,10.32,4.2,4.64,1.88h0l28.85,11.72,44.63,18.14,39.08,15.88L395.3,201.58A25.38,25.38,0,0,0,381.34,168.51ZM334.76,281.93a51.6,51.6,0,0,1-18.9,23.36,48.58,48.58,0,0,1-4.42,2.68,52,52,0,0,1-28.28,6.14,54.74,54.74,0,0,1-6.7-.92,51.49,51.49,0,0,1-9.16-2.78c-.17-.06-.33-.14-.49-.21a51.46,51.46,0,0,1-16.36-10.86,51.82,51.82,0,0,1,32.18-88.53l.53,0a51.09,51.09,0,0,1,16.35,1.46,52.46,52.46,0,0,1,6.77,2.22,51.64,51.64,0,0,1,9.58,5.13,50.73,50.73,0,0,1,9.17,7.94A51.75,51.75,0,0,1,334.76,281.93Z"/><path class="b99350b9-858d-4ec4-9473-0c69e9f4e7e0" d="M325,227.53a50.73,50.73,0,0,0-9.17-7.94,51.64,51.64,0,0,0-9.58-5.13,52.46,52.46,0,0,0-6.77-2.22,51.09,51.09,0,0,0-16.35-1.46l-.53,0a51.77,51.77,0,0,0-15.82,99.39c.16.07.32.15.49.21a51.49,51.49,0,0,0,9.16,2.78,54.74,54.74,0,0,0,6.7.92A52,52,0,0,0,311.44,308a48.58,48.58,0,0,0,4.42-2.68,51.6,51.6,0,0,0,18.9-23.36A51.75,51.75,0,0,0,325,227.53Zm-14.44,24.75a6.52,6.52,0,0,1-7.34,1.61,6.43,6.43,0,0,1-3-2.7c-.23-.32-.48-.65-.75-1s-.43-.5-.66-.74l-.56-.56c-.18-.18-.38-.36-.58-.54,0-.05-.1-.09-.15-.14l-.55-.46-.56-.45-.66-.49a22,22,0,0,0-2.09-1.31c-.3-.17-.61-.32-.91-.47l-.6-.28c-2.63-1.14-6.16-1.92-8.13.85s.74,5.46,7.08,10.59L293.3,258c.34.29.69.57,1,.87.65.55,1.28,1.12,1.91,1.7l.59.56c.14.12.27.26.41.4s.35.33.51.51c0,0,.06.06.1.1h0l.11.11c.21.21.42.43.62.66s.63.71.93,1.07a21.26,21.26,0,0,1,1.78,2.4c.15.23.29.46.43.7l.24.43c.14.27.28.54.39.81a12.82,12.82,0,0,1,.83,2.11c.06.17.11.35.16.52s.09.33.12.51c.08.36.16.73.21,1.1s.08.65.11,1a12.05,12.05,0,0,1,0,1.9,3,3,0,0,1-.05.52,3.27,3.27,0,0,1,0,.44l-.09.61c0,.13-.05.27-.08.41a5.78,5.78,0,0,1-.12.57,8.37,8.37,0,0,1-.23.86c-.05.21-.13.41-.2.62h0c-.05.16-.11.33-.17.49a15.52,15.52,0,0,1-.62,1.48,18.69,18.69,0,0,1-2.68,4.23c-3.82,4.59-9.56,6.75-16.35,6.17a27.74,27.74,0,0,1-3.5-.53l-1.87,4.31a6.15,6.15,0,0,1-8.09,3.17,6,6,0,0,1-2.89-2.63,6.11,6.11,0,0,1-.28-5.44l.28-.63,1.49-3.41c-.51-.32-1-.63-1.49-1a27.39,27.39,0,0,1-9.06-9.69,7.71,7.71,0,0,1,2.75-10l.17-.12.19-.08a7.38,7.38,0,0,1,5.72-.2l.23.11a7,7,0,0,1,3.1,3.24,25.05,25.05,0,0,0,10,8.31,13.56,13.56,0,0,0,3.24,1,5.59,5.59,0,0,0,6.17-2.73c.71-2.58-1.8-5.15-6.17-8.78l-1.45-1.2c-3.7-3-7.9-6.44-10.31-10.64-2.9-5-2.73-10.44.48-16.06a16,16,0,0,1,9.91-7.49c.44-.12.91-.23,1.37-.31.64-.12,1.32-.22,2-.28a19.3,19.3,0,0,1,2-.1h0c.43,0,.85,0,1.28,0h0l1.12.09s0,0,0,0a3.4,3.4,0,0,1,.46.06,4.44,4.44,0,0,1,.61.08c.24,0,.48.06.73.11h0c.33,0,.64.11,1,.18l1.21-2.78a6.12,6.12,0,0,1,5.83-3.67,6,6,0,0,1,2.25.5,6.14,6.14,0,0,1,3.17,8.07L303.75,236a24.29,24.29,0,0,1,7.6,8.11l0,0C312.89,247.1,312.6,250.13,310.59,252.28Z"/><path class="b99350b9-858d-4ec4-9473-0c69e9f4e7e0" d="M310.59,252.28a6.52,6.52,0,0,1-7.34,1.61,6.43,6.43,0,0,1-3-2.7c-.23-.32-.48-.65-.75-1s-.43-.5-.66-.74-.37-.37-.56-.56-.38-.36-.58-.54c0-.05-.1-.09-.15-.14l-.55-.46-.56-.45-.66-.49a22,22,0,0,0-2.09-1.31c-.3-.17-.61-.33-.91-.47l-.6-.28c-2.63-1.14-6.16-1.92-8.13.85s.74,5.46,7.08,10.59L293.3,258c.34.29.69.57,1,.87.65.55,1.28,1.12,1.91,1.7l.59.56c.14.12.27.26.41.4s.35.33.51.51c0,0,.06.06.1.1h0l.11.11c.21.21.42.43.62.66s.63.71.93,1.07a21.26,21.26,0,0,1,1.78,2.4c.15.23.29.46.43.7l.24.43c.14.27.28.54.39.81a12.82,12.82,0,0,1,.83,2.11c.06.17.11.35.16.52s.09.33.12.51c.08.36.16.73.21,1.1s.08.65.11,1a12.05,12.05,0,0,1,0,1.9,4.36,4.36,0,0,1-.05.52,3.27,3.27,0,0,1,0,.44l-.09.61c0,.13-.05.27-.08.41a5.78,5.78,0,0,1-.12.57,8.37,8.37,0,0,1-.23.86c-.05.21-.13.41-.2.62h0c-.05.16-.11.33-.17.49a15.52,15.52,0,0,1-.62,1.48,18.69,18.69,0,0,1-2.68,4.23c-3.82,4.59-9.56,6.75-16.35,6.17a27.74,27.74,0,0,1-3.5-.53l-1.87,4.31a6.15,6.15,0,0,1-8.09,3.17,6,6,0,0,1-2.89-2.63v-6.07l1.49-3.41c-.51-.32-1-.63-1.49-1a27.39,27.39,0,0,1-9.06-9.69,7.71,7.71,0,0,1,2.75-10l.17-.12.19-.08a7.38,7.38,0,0,1,5.72-.2l.23.11a7,7,0,0,1,3.1,3.24,25.05,25.05,0,0,0,10,8.31,13.56,13.56,0,0,0,3.24,1,5.59,5.59,0,0,0,6.17-2.73c.71-2.58-1.8-5.15-6.17-8.78l-1.45-1.2c-3.7-3-7.9-6.44-10.31-10.64-2.9-5-2.73-10.44.48-16.06a16,16,0,0,1,9.91-7.49c.44-.12.91-.23,1.37-.31.64-.12,1.32-.22,2-.28s1.34-.1,2-.1h0c.43,0,.85,0,1.28,0h0l1.12.09s0,0,0,0a3.4,3.4,0,0,1,.46.06,4.44,4.44,0,0,1,.61.08c.24,0,.48.06.73.11h0c.33,0,.64.11,1,.18l1.21-2.78a6.12,6.12,0,0,1,5.83-3.67,6,6,0,0,1,2.25.5,6.14,6.14,0,0,1,3.17,8.07L303.75,236a24.29,24.29,0,0,1,7.6,8.11l0,0C312.89,247.1,312.6,250.13,310.59,252.28Z"/><path class="b99350b9-858d-4ec4-9473-0c69e9f4e7e0" d="M318.61,390.33,317,394.17a25.38,25.38,0,0,1-33.06,14l-83.78-34-11.77-4.77-.68-.29a25.39,25.39,0,0,1-15.8-24.6,2.11,2.11,0,0,1,0-.25A25.25,25.25,0,0,1,173.8,336l1.56-3.84,9.68,3.94,6,2.45,10.32,4.2,4.64,1.88h0l28.85,11.72,44.63,18.14Z"/><line class="eb9c238f-6531-4305-85f4-1010ae787711" x1="325.41" y1="145.89" x2="315.86" y2="141.98"/><path class="b99350b9-858d-4ec4-9473-0c69e9f4e7e0" d="M217.75,172.9v48.22a13.78,13.78,0,0,1,2.31,1l-2.31,5.67,0,.06-2.21,5.42-1.19,2.92-2.59,6.38-2.66,6.55-2.57,6.33-5.11,12.59V171.56"/><path class="b99350b9-858d-4ec4-9473-0c69e9f4e7e0" d="M185,175.55V118a25.21,25.21,0,0,1,11.26-2.58l58.12.26,45.75.21a25.4,25.4,0,0,1,25.26,25.5l0,4.39v.1l35.23,14.44-11,6.62a12.74,12.74,0,0,1-11.16.79l-13.17-5.36-9.47-3.84-.43-.18A12.63,12.63,0,0,1,308,150l-2.75-12.39L315.86,142v-.07l-16.35-6.64-14.4-5.85a20.58,20.58,0,0,0-1.95-.69,25.18,25.18,0,0,0-15.6.12c-1.68.64-3.16,1.34-4.4,1.93a25.29,25.29,0,0,0-11.11,12.6l-1.6,3.93"/><path class="b99350b9-858d-4ec4-9473-0c69e9f4e7e0" d="M169.87,344.42v.38l0,3.77a25.41,25.41,0,0,0,25.26,25.5l5.09,0"/><path class="b99350b9-858d-4ec4-9473-0c69e9f4e7e0" d="M267.56,128.85a12.48,12.48,0,0,0,2.62-2.41L278.7,116"/><path class="b99350b9-858d-4ec4-9473-0c69e9f4e7e0" d="M217.48,116.56l7.71,9.67a12.88,12.88,0,0,0,10,4.78l24.91.12a12.28,12.28,0,0,0,3-.35"/><line class="eb9c238f-6531-4305-85f4-1010ae787711" x1="171.95" y1="344.43" x2="171.14" y2="344.43"/><line class="eb9c238f-6531-4305-85f4-1010ae787711" x1="201.4" y1="171.56" x2="201.4" y2="118.01"/><line class="eb9c238f-6531-4305-85f4-1010ae787711" x1="217.75" y1="227.25" x2="217.75" y2="221.12"/><line class="eb9c238f-6531-4305-85f4-1010ae787711" x1="217.75" y1="172.9" x2="217.75" y2="118.01"/><line class="eb9c238f-6531-4305-85f4-1010ae787711" x1="234.1" y1="131.26" x2="234.1" y2="186.35"/><line class="eb9c238f-6531-4305-85f4-1010ae787711" x1="250.45" y1="147.31" x2="250.45" y2="131.26"/><line class="eb9c238f-6531-4305-85f4-1010ae787711" x1="283.16" y1="128.73" x2="283.16" y2="118.01"/><line class="eb9c238f-6531-4305-85f4-1010ae787711" x1="299.51" y1="135.27" x2="299.51" y2="118.01"/><path class="b99350b9-858d-4ec4-9473-0c69e9f4e7e0" d="M360.64,160.33l-11,6.62a12.74,12.74,0,0,1-11.16.79l-13.17-5.36-9.47-3.84-.43-.18A12.63,12.63,0,0,1,308,150l-2.75-12.39L315.86,142l9.55,3.91Z"/><line class="eb9c238f-6531-4305-85f4-1010ae787711" x1="315.86" y1="141.91" x2="315.86" y2="122.17"/><path class="b99350b9-858d-4ec4-9473-0c69e9f4e7e0" d="M187.75,369l.68.29A25.42,25.42,0,0,1,163,351.17l-59.1-199.3A25.37,25.37,0,0,1,121,120.33L199.61,97h0l21-6.22a25.38,25.38,0,0,1,31.55,17.12l2.3,7.78-58.12-.26a25.38,25.38,0,0,0-25.49,25.26l-.2,44.09-.36,76.51-.38,83.13h1.27l.83-.25a2.11,2.11,0,0,0,0,.25A25.39,25.39,0,0,0,187.75,369Z"/><path class="b99350b9-858d-4ec4-9473-0c69e9f4e7e0" d="M266.81,290.07v6.07a6.11,6.11,0,0,1-.28-5.44Z"/><path class="b99350b9-858d-4ec4-9473-0c69e9f4e7e0" d="M287.18,230.64c-.69,0-1.37,0-2,.1A19.3,19.3,0,0,1,287.18,230.64Z"/><path class="b99350b9-858d-4ec4-9473-0c69e9f4e7e0" d="M141.41,114.7l10.3,7.44a12.68,12.68,0,0,0,11,1.87l23.88-7.08a12.67,12.67,0,0,0,8.22-7.58l5-12.94"/><polyline class="b99350b9-858d-4ec4-9473-0c69e9f4e7e0" points="171.13 344.43 169.87 344.8 161.8 347.19"/><path class="b99350b9-858d-4ec4-9473-0c69e9f4e7e0" d="M170.61,184.78l-.36,76.51a51.81,51.81,0,0,1,.36-76.51Z"/><polyline class="b99350b9-858d-4ec4-9473-0c69e9f4e7e0" points="201.4 171.56 201.4 268.05 198.75 274.56 185.04 308.28 185.04 175.56"/><path class="b99350b9-858d-4ec4-9473-0c69e9f4e7e0" d="M234.1,180.13c.16,1,1.58,1.08,2.34,1.67l-14.82,36.48-1.56,3.85a13.78,13.78,0,0,0-2.31-1V172.9"/><path class="a3ba9097-448e-4868-ac80-57650cfb1320" d="M185,118V308.28l-9.68,23.84L173.8,336a25.25,25.25,0,0,0-1.83,8.22l-.83.25h-1.27l.38-83.13.36-76.51.2-44.09A25.34,25.34,0,0,1,185,118Z"/><polygon class="f6d6b8c3-8984-4bf1-b27b-2e506abb2f6d" points="370.93 115.1 388.4 125.57 427.9 60.04 410.43 49.58 370.93 115.1"/><polygon class="f6d6b8c3-8984-4bf1-b27b-2e506abb2f6d" points="386.56 142.53 399.15 158.51 454.06 115.49 441.46 99.52 386.56 142.53"/><polygon class="f6d6b8c3-8984-4bf1-b27b-2e506abb2f6d" points="361.19 119.65 340.81 119.34 341.64 63.98 362.02 64.29 361.19 119.65"/></g></svg>