<svg xmlns="http://www.w3.org/2000/svg" viewBox="0 0 500 500"><defs><style>.b528edeb-5fd2-4ae4-8690-23d7fd5c88c1,.b6515afa-9dae-4038-87e4-31d3bf027971,.eaa81999-a99d-4627-84c6-18003ffc5b54{fill:none;stroke:#000;stroke-linejoin:round;stroke-width:4px;}.b6515afa-9dae-4038-87e4-31d3bf027971,.eaa81999-a99d-4627-84c6-18003ffc5b54{stroke-linecap:round;}.a33603eb-6103-4720-8ce6-d18cede8884d,.b528edeb-5fd2-4ae4-8690-23d7fd5c88c1,.b6515afa-9dae-4038-87e4-31d3bf027971{fill-rule:evenodd;}.a33603eb-6103-4720-8ce6-d18cede8884d{fill:#efd857;}</style></defs><g id="a16fbc22-a08e-4e24-8ecf-940c4719f94b" data-name="Calque 5"><path class="b6515afa-9dae-4038-87e4-31d3bf027971" d="M136.47,121.83,236.4,91.11A25,25,0,0,1,250.7,91l107.78,31.07a25.06,25.06,0,0,1,18.11,24.07V250a25,25,0,0,1-17.36,23.84L255.09,307.42a25,25,0,0,1-14.86.16l-103.58-31a25.05,25.05,0,0,1-17.87-24V145.77A25.07,25.07,0,0,1,136.47,121.83Z"/><polyline class="b6515afa-9dae-4038-87e4-31d3bf027971" points="142.66 135.61 245.31 170.16 369.54 128.7"/><line class="eaa81999-a99d-4627-84c6-18003ffc5b54" x1="245.31" y1="170.16" x2="245.31" y2="256.03"/><line class="eaa81999-a99d-4627-84c6-18003ffc5b54" x1="245.31" y1="279.32" x2="245.31" y2="308.54"/><line class="eaa81999-a99d-4627-84c6-18003ffc5b54" x1="140.69" y1="228.39" x2="140.69" y2="256.03"/><line class="eaa81999-a99d-4627-84c6-18003ffc5b54" x1="163.39" y1="234.31" x2="163.39" y2="261.95"/><path class="b6515afa-9dae-4038-87e4-31d3bf027971" d="M166.6,112.57l122.13,43.1v39.92a6.48,6.48,0,0,0,8.61,6.12l32.45-11.29a6.47,6.47,0,0,0,4.36-6.12V141.08l-122.4-40"/><path class="b6515afa-9dae-4038-87e4-31d3bf027971" d="M114.85,357.51v22.72a6.72,6.72,0,0,0,6.71,6.71h32.31a6.71,6.71,0,0,0,6.71-6.71V322.16a6.71,6.71,0,0,0-6.71-6.71H121.56a6.72,6.72,0,0,0-6.71,6.71v23.33"/><path class="b528edeb-5fd2-4ae4-8690-23d7fd5c88c1" d="M159.91,377l64.85,29.59A37.22,37.22,0,0,0,240.34,410c11,0,111.57-33.55,111.57-33.55,66.14-17.92,25.16-58.58-49.35-14.81l-75.88,1.57,75.88-1.57C334,327.32,246.3,332,246.3,332c-2-2-44.93-28.36-65.36-1.56h-21"/><polygon class="a33603eb-6103-4720-8ce6-d18cede8884d" points="373.05 93.33 390.52 103.8 430.01 38.27 412.54 27.81 373.05 93.33"/><polygon class="a33603eb-6103-4720-8ce6-d18cede8884d" points="388.67 120.77 401.27 136.74 456.18 93.72 443.58 77.75 388.67 120.77"/><polygon class="a33603eb-6103-4720-8ce6-d18cede8884d" points="363.3 97.88 342.93 97.58 343.76 42.21 364.13 42.52 363.3 97.88"/></g></svg>