<svg xmlns="http://www.w3.org/2000/svg" viewBox="0 0 743.34 466.84"><defs><style>.cls-1{fill:#ededed;}.cls-2{fill:#9d9d9c;}.cls-3{fill:#bdbcbc;}.cls-4{fill:#e74011;}.cls-5{fill:#188c8c;}.cls-6{fill:#167272;}.cls-7{fill:#72c8da;}.cls-8{fill:#4f5ea8;}.cls-9{fill:#62c2ce;}.cls-10{fill:#a2d2b8;}.cls-11{fill:#85c7a7;}.cls-12{fill:#1ea7ac;}.cls-13{fill:#2e2d2c;}.cls-14{fill:#ccb64b;}.cls-15{fill:#bb745d;}</style></defs><g id="Calque_2" data-name="Calque 2"><g id="Pétanque"><path class="cls-1" d="M537.29,61.9c-132.18,0-206.64,196.22-343.55,196.22S0,354.1,0,380s48.79,86.87,134,86.87,132.16-91,205-91,165.19,21.61,238.73,21.61,165.62-40.39,165.62-87-20.55-87.77-64.91-87.77-87.92-27.26-50.5-64.69,74.4-33.37,74.4-58.55S649.37,61.9,537.29,61.9Z"/><circle class="cls-2" cx="493.93" cy="203.81" r="5.88"/><circle class="cls-3" cx="532.55" cy="219.42" r="5.88"/><circle class="cls-4" cx="516.8" cy="221.45" r="1.82"/><circle class="cls-2" cx="492.67" cy="254.38" r="5.88"/><polygon class="cls-5" points="188.58 317.84 198.15 335.84 201.64 354.54 204.17 364.27 201.08 377.35 194.64 403.73 180.47 402.19 186.14 376.69 187.43 372.57 186.4 369.99 187.43 366.9 184.08 362.78 168.88 335.84 160.33 329.98 156.26 321.06 156.26 312.75 173.89 311.96 188.58 317.84"/><polygon class="cls-6" points="156.26 312.75 150.42 315.56 148.19 320.89 148.19 326.72 153.51 336.68 163.13 348.7 173.6 364.33 175.66 367.07 174.63 368.79 175.66 371.37 173.6 373.08 165.23 401.18 177.21 401.18 184.31 384.89 186.14 376.69 187.43 372.57 186.4 369.99 187.43 366.9 184.08 362.78 168.88 335.84 160.33 329.98 156.26 321.06 156.26 312.75"/><polygon class="cls-6" points="165.31 396.44 163.82 401.93 177.55 401.93 178.84 399.61 178.84 397.98 165.31 396.44"/><polygon class="cls-7" points="169.49 269.06 171.35 257.93 169.49 245.64 182.94 233.71 188.06 234.14 188.02 244.58 190.22 249.95 189.72 251.01 188.06 251.38 188.84 256.68 187.97 260.43 182.91 260.34 181.32 267.11 169.49 269.06"/><polygon class="cls-8" points="171.35 257.93 166.41 249.28 164.74 243.18 167.3 239.19 166.9 235.32 169.53 231.71 175.01 230.65 180.85 231.28 184.35 229.53 183.74 227.31 186.03 225.9 188.06 226.76 188.39 228.5 189.79 226.57 191.96 230.47 190.71 236.3 188.06 238.73 183.69 240.67 182.94 243.34 178.35 244.87 179.48 250.08 175.79 248.97 173.94 247.63 172.66 248.97 173.92 252.91 171.35 257.93"/><polygon class="cls-9" points="167.08 401.18 164.76 418.41 162.96 425.75 163.82 428.71 166.56 429.36 170.17 429.36 172.75 427.94 176.22 426.01 184.34 423.05 183.43 420.22 178.84 418.67 175.19 417.9 173.65 415.27 175.34 401.01 167.08 401.18"/><polygon class="cls-10" points="148.19 323.89 145.7 320.54 146.95 307.51 149.56 303.03 149.1 284.01 158.11 270.73 166.88 265.19 180.21 263.83 185.37 265.17 191.29 267.74 195.04 272.38 195.04 280.62 193.09 286.55 190.52 294.53 190.52 303.54 188.78 310.76 190.52 314.36 191.29 319.25 188.58 317.84 178.84 316.16 173.65 321.79 165.73 322.84 157.55 323.89 148.19 323.89"/><polygon class="cls-9" points="191.42 289.05 216.84 278.4 221.21 273.17 225.94 270.42 231 268.7 231 270.16 226.37 271.79 224.99 274.37 224.99 275.83 226.79 275.83 231 274.28 232.03 274.88 232.03 276.09 227.91 277.63 225.34 279.35 220.36 281.5 217.87 282.27 202.33 294.29 191.85 298.75 188.78 290.4 191.42 289.05"/><circle class="cls-3" cx="200.71" cy="322.14" r="4.85"/><polygon class="cls-7" points="184.85 297.88 188.97 302.51 199.36 314.7 198.59 316.68 196.35 317.37 196.87 320.29 199.36 318.48 202.96 320.8 204.17 322.17 202.88 324.23 199.87 325.61 197.9 325.61 199.01 327.32 201.16 327.32 202.28 328.01 204.68 326.55 207.34 322.35 206.57 320.03 204.51 314.45 204.17 312.3 202.11 310.33 192.66 293.58 184.85 297.88"/><polygon class="cls-11" points="178.84 270.32 176.99 275.99 179.51 280.11 178.25 283.2 176.99 288.86 178.25 293.24 184.34 298.91 193.86 293.76 195.04 291.95 193.52 290.15 195.04 287.92 193.34 285.77 195.04 280.62 195.04 272.38 191.29 267.74 185.37 265.17 178.84 270.32"/><polygon class="cls-6" points="180.68 397.64 179.51 402.75 195.17 404.72 197.18 397.64 180.68 397.64"/><polygon class="cls-7" points="181.95 402.71 178.84 418.67 176.99 424.08 176.99 427.69 178.84 429.36 183.2 430.28 189.62 428.25 197.12 425.09 200.56 422.28 199.14 419.96 194.84 418.7 190.65 420.47 188.34 418.41 192.9 403.36 181.95 402.71"/><circle class="cls-3" cx="244.29" cy="269.06" r="6.03"/><polygon class="cls-12" points="226.76 425.59 225.71 441.69 216.83 441.69 215.78 425.59 226.76 425.59"/><rect class="cls-13" x="218.75" y="429.41" width="5.1" height="1.36" transform="translate(-229.56 605.23) rotate(-84)"/><rect class="cls-13" x="221.41" y="431.33" width="4.65" height="1.36" transform="translate(-262.75 436.65) rotate(-63.17)"/><rect class="cls-13" x="217.85" y="429.85" width="1.36" height="3.7" transform="translate(-157.46 127.15) rotate(-24.14)"/><polygon class="cls-13" points="581.04 68.04 575.13 82.55 571.37 117.12 606.44 117.12 611.35 89.1 609.63 77.62 605.68 71.91 581.04 68.04"/><polygon class="cls-14" points="572.54 117.12 571.08 141.68 570.81 176.4 579.08 176.4 580 143.49 586.56 117.12 572.54 117.12"/><polygon class="cls-15" points="581.04 29.77 579.58 22.13 578.97 11.6 583.76 4.26 588.17 0.68 593.36 0 598.21 0.96 602.08 3.5 605.55 10.51 606.87 21.56 605.82 30.4 581.04 29.77"/><polygon class="cls-14" points="605.27 117.12 597.16 147.62 594.13 175.37 586.75 175.37 588.39 142.56 591.02 117.12 605.27 117.12"/><polygon class="cls-14" points="570.81 176.4 568.97 181.87 564.58 187.31 567.11 190.94 573.47 189.43 576.28 183.67 579.08 176.4 570.81 176.4"/><polygon class="cls-14" points="586.75 175.37 586.15 180.66 587.24 187.01 589.93 190.94 594.11 190.94 598.13 187.91 593.55 180.66 594.13 175.37 586.75 175.37"/><polygon class="cls-14" points="575.13 31.07 555.22 51.19 573.47 74.82 576.2 70.44 563.26 51.49 575.95 41.66 575.13 31.07"/><polygon class="cls-14" points="609.63 31.34 628.83 50.02 611.35 74.82 608.62 70.44 621.26 52.08 608.75 42.63 609.63 31.34"/><polygon class="cls-14" points="573.47 74.82 575.11 75.63 576.82 74.27 578.37 75.85 580.87 71.11 577.66 69.13 576.2 70.44 573.47 74.82"/><polygon class="cls-14" points="608.62 70.44 605 71.19 605.82 74.82 608.19 77.24 608.62 75.85 611.35 74.82 608.62 70.44"/><polygon class="cls-14" points="586 19.25 586.13 20.2 589.8 23.19 589.27 26.05 586.73 26.47 591.99 45.09 598.64 26.82 596.26 26.04 595.75 23.19 599.3 20.03 600.1 16.88 601.79 16.2 602.63 14 602.63 10.98 600.87 10.3 600.18 11.44 597.73 12.49 596.63 7.13 594.79 12.82 589.93 13.7 586.73 18.22 586 19.25"/><polygon class="cls-4" points="586.73 26.47 575.13 31.07 576.28 45.98 579.76 52.95 581.04 68.04 605.68 71.91 605.68 52.99 608.54 45.28 609.63 31.34 598.64 26.82 591.99 45.09 586.73 26.47"/></g></g></svg>