<svg xmlns="http://www.w3.org/2000/svg" viewBox="0 0 211.59 258.95"><defs><style>.cls-1{fill:#2e2d2c;}.cls-2{fill:#e74011;}.cls-3{fill:#bdbcbc;}.cls-4{fill:#1ea7ac;}.cls-5{fill:#efd857;}.cls-6{fill:#fce6f1;}.cls-7{fill:#e37c48;}.cls-8{fill:#e45f41;}.cls-9{fill:#e5856e;}.cls-10{fill:#fff;}.cls-11{fill:#4f5ea8;}</style></defs><g id="Calque_2" data-name="Calque 2"><g id="Tcheen"><polygon class="cls-1" points="196.85 122.59 203.29 184.83 203.29 231.28 189.13 232.17 183.72 186.38 175.41 143.71 166.97 187.72 164.65 232.17 152.03 232.17 149.19 188.61 151 121.48 196.85 122.59"/><polygon class="cls-2" points="153.9 232.17 142.8 238.92 141.3 244.17 146.7 246.57 164.09 236.97 163.19 232.17 153.9 232.17"/><polygon class="cls-2" points="191.54 232.02 192.44 243.12 197.69 248.52 201.89 246.57 203.29 241.62 201.46 231.4 191.54 232.02"/><polygon class="cls-3" points="209.33 74.96 210.59 79.19 210.59 83.84 197.75 117.14 195.6 99.02 199.39 82.89 198.39 76.44 209.33 74.96"/><polygon class="cls-3" points="143.25 65.01 139.8 75.74 110.49 71.92 105.98 65.01 100.4 65.01 101.72 67.67 104.12 69 96.14 70.86 96.14 67.14 93.75 69 93.75 72.59 97.05 76.44 102.75 79.04 112.62 79.36 139.99 87.86 146.1 85.47 151.95 72.72 143.25 65.01"/><polygon class="cls-3" points="158.27 12.2 158.27 23.14 159.72 31.16 162.42 34.34 168.07 33.94 171.95 32.41 168.73 34.34 166.56 35.27 166.1 40.5 163.8 42.03 169.98 47.46 177.08 47.46 183.13 41.63 180.97 40.1 180.37 27.58 183.66 16.97 180.44 10.28 159.26 10.28 158.27 12.2"/><polygon class="cls-1" points="179.65 28.97 177.54 24.6 180.18 24 181.95 20.82 181.36 17.7 178.99 16.9 175.97 19.09 175.57 20.82 173.79 21.74 174.45 14.85 160.84 14.85 155.18 10.87 155.18 4.62 158.86 2.45 161.69 3.9 164.78 0.93 171.43 0 174.78 3.18 178.66 1.33 182.87 3.18 185.04 6.36 184.58 8.35 186.82 9.54 186.82 14.52 184.91 15.84 184.52 23.93 180.78 29.22 179.65 28.97"/><polygon class="cls-4" points="181.19 38.49 193.99 43.29 205.99 55.29 211.59 74.49 196.39 77.69 191.59 65.29 198.39 122.48 149.59 122.48 154.79 70.09 152 75.69 142 66.49 142 59.55 151.19 43.69 165.99 38.49 174.19 46.09 181.19 38.49"/><polygon class="cls-5" points="105.74 60.56 104.59 78.12 94.9 78.12 93.75 60.56 105.74 60.56"/><polygon class="cls-3" points="105.98 65.01 100.4 65.01 101.72 67.67 105.18 69.08 105.98 65.01"/><polygon class="cls-6" points="38.27 41.81 37.82 38.67 33.85 37.83 31.42 35.95 34.27 37.07 39.49 37.83 43.31 36.79 47.13 30.67 47.13 23.86 46.65 16.28 38.93 10.57 31.14 10.09 24.4 14.47 19.04 19.61 18.35 32.34 25.89 41.81 26.62 43.81 29.68 45.48 35.17 45.48 38.27 41.81"/><polygon class="cls-6" points="8.67 185.53 7.47 243.64 18.77 243.64 21.69 179.7 8.67 185.53"/><polygon class="cls-6" points="32.17 185.53 30.97 243.64 42.28 243.64 45.19 179.7 32.17 185.53"/><polygon class="cls-3" points="7.47 243.64 7.11 202.27 22.03 201.63 18.77 243.64 27.8 251.49 30.62 256.86 5.47 253.37 7.47 243.64"/><polygon class="cls-3" points="42.29 243.64 45.54 201.63 30.62 202.27 30.98 243.64 28.93 253.63 56.08 258.95 54.4 252.44 42.29 243.64"/><polygon class="cls-7" points="26.11 40.55 26.11 29.21 23.98 29.63 21.68 26.43 21.68 22.46 23.9 19.89 27.32 21.07 27.54 23.37 29.26 21.77 28.15 13.49 32.19 18.22 37.4 18.29 41.22 18.02 44.63 17.81 48.11 17.39 49.85 13.98 46.09 7.65 37.4 2.86 29.75 2.86 22.73 4.8 18 8.84 13.06 16.62 11.6 26.29 14.8 37.9 19.13 46.14 29.82 53.76 51.72 54.24 56.8 50.63 58.47 43.67 55.55 39.01 50.26 35.61 46.54 31.63 43.31 36.79 39.49 37.83 34.27 37.07 31.42 35.95 33.85 37.83 37.82 38.67 38.27 41.81 35.17 45.48 29.68 45.48 26.62 43.81 25.89 41.81 26.11 40.55"/><polygon class="cls-6" points="82.09 74.16 85.94 68.28 90.69 68.28 89.56 70.54 87.52 71.67 94.3 73.25 94.3 70.09 95.24 71.71 95.06 76.22 93.53 78 88.68 80.21 80.29 80.49 81.28 75.27 82.09 74.16"/><polygon class="cls-8" points="47.13 64.45 52.26 94.2 60.84 95.76 83.98 80.6 81.62 73.72 61.95 83.76 58.47 70.65 55.41 54.24 52.07 49.24 42.06 44.79 47.13 64.45"/><polyline class="cls-9" points="42.06 44.79 22.03 44.79 19.31 66.57 5.38 126.46 2.87 166.37 0 187.58 55.44 189.25 49.14 123.04 44.54 103.23 45.47 86.48 48.77 81.51 49.14 75.39 49.19 65.01 42.06 44.79"/><polygon class="cls-10" points="38.86 41.17 42.06 44.79 40.46 48.82 35.66 49.79 32.19 45.48 28.43 49.79 22.59 47.85 22.03 44.79 25.3 41.17 27.59 43.67 32.05 44.79 36.5 43.74 38.86 41.17"/><polygon class="cls-8" points="22.03 44.79 13.69 48.68 8.4 53.69 5.9 70.65 2.87 113.2 11.6 136.8 19.56 133.03 12.24 111.93 19.31 66.57 22.03 58.48 22.03 44.79"/><polygon class="cls-6" points="12.45 136.39 13.84 141.74 17.28 146.02 22.03 146.58 25.1 142.48 23.05 141.09 21.47 138.48 22.87 138.39 18.77 133.41 12.45 136.39"/><polygon class="cls-11" points="96.28 62.92 95.14 80.49 85.45 80.49 84.3 62.92 96.28 62.92"/><polygon class="cls-6" points="84.77 70.07 90.84 68.28 89.71 70.54 84.92 72.49 84.77 70.07"/></g></g></svg>