<?xml version="1.0" encoding="utf-8"?>
<!-- Generator: Adobe Illustrator 26.0.1, SVG Export Plug-In . SVG Version: 6.00 Build 0)  -->
<svg version="1.1" id="Calque_1" xmlns="http://www.w3.org/2000/svg" xmlns:xlink="http://www.w3.org/1999/xlink" x="0px" y="0px"
	 viewBox="0 0 211.6 259" style="enable-background:new 0 0 211.6 259;" xml:space="preserve">
<style type="text/css">
	.st0{fill:#EFD857;stroke:#FFFFFF;stroke-width:2;stroke-linecap:round;stroke-linejoin:round;stroke-miterlimit:10;}
	.st1{fill:#2E2D2C;}
	.st2{fill:#E74011;}
	.st3{fill:#BDBCBC;}
	.st4{fill:#1EA7AC;}
	.st5{fill:#EAEAE9;}
	.st6{fill:#FCE6F1;}
	.st7{fill:#E37C48;}
	.st8{fill:#E45F41;}
	.st9{fill:#E5856E;}
	.st10{fill:#FFFFFF;}
	.st11{fill:#4F5EA8;}
	.st12{fill:#008A88;}
</style>
<g id="Calque_2_00000080167419101755223390000017115263937272052409_">
	<rect x="29.7" y="22.3" class="st0" width="152.2" height="214.4"/>
</g>
<g id="Calque_1_00000157998870763560939830000011021760789393867952_">
	<g id="Calque_2_00000101810942347755651950000001184272220334107778_">
		<g id="Tcheen">
			<polygon class="st1" points="196.9,122.6 203.3,184.8 203.3,231.3 189.1,232.2 183.7,186.4 175.4,143.7 167,187.7 164.6,232.2 
				152,232.2 149.2,188.6 151,121.5 			"/>
			<polygon class="st2" points="153.9,232.2 142.8,238.9 141.3,244.2 146.7,246.6 164.1,237 163.2,232.2 			"/>
			<polygon class="st2" points="191.5,232 192.4,243.1 197.7,248.5 201.9,246.6 203.3,241.6 201.5,231.4 			"/>
			<polygon class="st3" points="209.3,75 210.6,79.2 210.6,83.8 197.8,117.1 195.6,99 199.4,82.9 198.4,76.4 			"/>
			<polygon class="st3" points="143.2,65 139.8,75.7 110.5,71.9 106,65 100.4,65 101.7,67.7 104.1,69 96.1,70.9 96.1,67.1 93.8,69 
				93.8,72.6 97.1,76.4 102.8,79 112.6,79.4 140,87.9 146.1,85.5 151.9,72.7 			"/>
			<polygon class="st3" points="158.3,12.2 158.3,23.1 159.7,31.2 162.4,34.3 168.1,33.9 171.9,32.4 168.7,34.3 166.6,35.3 
				166.1,40.5 163.8,42 170,47.5 177.1,47.5 183.1,41.6 181,40.1 180.4,27.6 183.7,17 180.4,10.3 159.3,10.3 			"/>
			<polygon class="st1" points="179.6,29 177.5,24.6 180.2,24 181.9,20.8 181.4,17.7 179,16.9 176,19.1 175.6,20.8 173.8,21.7 
				174.4,14.9 160.8,14.9 155.2,10.9 155.2,4.6 158.9,2.5 161.7,3.9 164.8,0.9 171.4,0 174.8,3.2 178.7,1.3 182.9,3.2 185,6.4 
				184.6,8.4 186.8,9.5 186.8,14.5 184.9,15.8 184.5,23.9 180.8,29.2 			"/>
			<polygon class="st4" points="181.2,38.5 194,43.3 206,55.3 211.6,74.5 196.4,77.7 191.6,65.3 198.4,122.5 149.6,122.5 
				154.8,70.1 152,75.7 142,66.5 142,59.5 151.2,43.7 166,38.5 174.2,46.1 			"/>
			<polygon class="st5" points="105.7,60.6 104.6,78.1 94.9,78.1 93.8,60.6 			"/>
			<polygon class="st3" points="106,65 100.4,65 101.7,67.7 105.2,69.1 			"/>
			<polygon class="st6" points="38.3,41.8 37.8,38.7 33.8,37.8 31.4,36 34.3,37.1 39.5,37.8 43.3,36.8 47.1,30.7 47.1,23.9 
				46.7,16.3 38.9,10.6 31.1,10.1 24.4,14.5 19,19.6 18.4,32.3 25.9,41.8 26.6,43.8 29.7,45.5 35.2,45.5 			"/>
			<polygon class="st6" points="8.7,185.5 7.5,243.6 18.8,243.6 21.7,179.7 			"/>
			<polygon class="st6" points="32.2,185.5 31,243.6 42.3,243.6 45.2,179.7 			"/>
			<polygon class="st3" points="7.5,243.6 7.1,202.3 22,201.6 18.8,243.6 27.8,251.5 30.6,256.9 5.5,253.4 			"/>
			<polygon class="st3" points="42.3,243.6 45.5,201.6 30.6,202.3 31,243.6 28.9,253.6 56.1,259 54.4,252.4 			"/>
			<polygon class="st7" points="26.1,40.5 26.1,29.2 24,29.6 21.7,26.4 21.7,22.5 23.9,19.9 27.3,21.1 27.5,23.4 29.3,21.8 
				28.1,13.5 32.2,18.2 37.4,18.3 41.2,18 44.6,17.8 48.1,17.4 49.8,14 46.1,7.7 37.4,2.9 29.8,2.9 22.7,4.8 18,8.8 13.1,16.6 
				11.6,26.3 14.8,37.9 19.1,46.1 29.8,53.8 51.7,54.2 56.8,50.6 58.5,43.7 55.5,39 50.3,35.6 46.5,31.6 43.3,36.8 39.5,37.8 
				34.3,37.1 31.4,36 33.8,37.8 37.8,38.7 38.3,41.8 35.2,45.5 29.7,45.5 26.6,43.8 25.9,41.8 			"/>
			<polygon class="st6" points="82.1,74.2 85.9,68.3 90.7,68.3 89.6,70.5 87.5,71.7 94.3,73.2 94.3,70.1 95.2,71.7 95.1,76.2 
				93.5,78 88.7,80.2 80.3,80.5 81.3,75.3 			"/>
			<polygon class="st8" points="47.1,64.4 52.3,94.2 60.8,95.8 84,80.6 81.6,73.7 62,83.8 58.5,70.7 55.4,54.2 52.1,49.2 42.1,44.8 
							"/>
			<polyline class="st9" points="42.1,44.8 22,44.8 19.3,66.6 5.4,126.5 2.9,166.4 0,187.6 55.4,189.2 49.1,123 44.5,103.2 
				45.5,86.5 48.8,81.5 49.1,75.4 49.2,65 42.1,44.8 			"/>
			<polygon class="st10" points="38.9,41.2 42.1,44.8 40.5,48.8 35.7,49.8 32.2,45.5 28.4,49.8 22.6,47.8 22,44.8 25.3,41.2 
				27.6,43.7 32,44.8 36.5,43.7 			"/>
			<polygon class="st8" points="22,44.8 13.7,48.7 8.4,53.7 5.9,70.7 2.9,113.2 11.6,136.8 19.6,133 12.2,111.9 19.3,66.6 22,58.5 
							"/>
			<polygon class="st6" points="12.4,136.4 13.8,141.7 17.3,146 22,146.6 25.1,142.5 23,141.1 21.5,138.5 22.9,138.4 18.8,133.4 			
				"/>
			<polygon class="st11" points="96.3,62.9 95.1,80.5 85.4,80.5 84.3,62.9 			"/>
			<polygon class="st6" points="84.8,70.1 90.8,68.3 89.7,70.5 84.9,72.5 			"/>
		</g>
	</g>
</g>
<g id="Calque_3">
	<g id="Calque_2_00000015350452941497396570000006131836382545133722_">
		<g id="Tcheen_00000122698103675208749550000011726659969908332180_">
			
				<rect x="107.2" y="51.1" transform="matrix(0.6091 -0.7931 0.7931 0.6091 2.4285 110.033)" class="st12" width="11.2" height="3"/>
			
				<rect x="110" y="57.4" transform="matrix(0.8513 -0.5247 0.5247 0.8513 -13.7957 69.1471)" class="st12" width="10.2" height="3"/>
			
				<rect x="101.7" y="50.8" transform="matrix(0.1285 -0.9917 0.9917 0.1285 40.2696 150.4983)" class="st12" width="8.1" height="3"/>
		</g>
	</g>
	<g id="Calque_2_00000087392967020819801710000004884402215014995630_">
		<g id="Tcheen_00000061446405653379808030000017470416785360336792_">
			
				<rect x="71.6" y="42" transform="matrix(0.7582 -0.652 0.652 0.7582 -14.5816 60.0467)" class="st12" width="4.1" height="15.4"/>
			
				<rect x="80.8" y="41.3" transform="matrix(0.9405 -0.3397 0.3397 0.9405 -11.4854 31.0177)" class="st12" width="4.1" height="14"/>
			
				<rect x="69.4" y="53.5" transform="matrix(0.3284 -0.9445 0.9445 0.3284 -7.8114 107.1088)" class="st12" width="4.1" height="11.1"/>
		</g>
	</g>
</g>
</svg>
